<!-- public/icons/bitcoin.svg -->
<svg xmlns="http://www.w3.org/2000/svg" width="512" height="512" viewBox="0 0 32 32" fill="#F7931A">
  <circle cx="16" cy="16" r="16"></circle>
  <path fill="#FFF" d="M20.8 15.7c.5-.6.8-1.3.8-2.3 0-2.5-2.1-3.7-4.5-3.9V7.2h-1.7v2.2h-.9V7.2h-1.7v2.2h-1.5v1.7h1.5v6.5H10V20h1.5v2.2h1.7V20h.9v2.2h1.7V20c2.1-.1 4.3-1.3 4.3-3.6 0-1.2-.6-2.1-1.3-2.7zm-2.3-3.6c.9.2 1.5.8 1.5 1.7 0 1-.8 1.7-2 1.7h-1.5v-3.4c.6.1 1.3.1 2 .1zm-.4 7.7h-1.6v-3.4c.7 0 2.4.1 2.4 1.7 0 1-.8 1.7-1.6 1.7z"></path>
</svg>
