<svg xmlns="http://www.w3.org/2000/svg" viewBox="0 0 512 512" id="trading">
  <circle cx="256" cy="162.233" r="154.733" fill="#fed947"></circle>
  <circle cx="256" cy="162.233" r="124.733" fill="#f69531" transform="rotate(-45 256 162.233)"></circle>
  <path fill="#f48a31" d="M256 37.5a124.953 124.953 0 0 0-22.5 2.038c58.076 10.624 102.233 61.598 102.233 122.695S291.576 274.304 233.5 284.928A124.737 124.737 0 1 0 256 37.5Z"></path>
  <path fill="#fff" d="M273.804 229.733H228.31a7.5 7.5 0 0 1-7.5-7.5v-59.656a7.5 7.5 0 0 1 7.5-7.5h45.493a30.823 30.823 0 0 1 30.789 30.789v13.078a30.823 30.823 0 0 1-30.79 30.789Zm-37.993-15h37.993a15.807 15.807 0 0 0 15.789-15.79v-13.077a15.807 15.807 0 0 0-15.79-15.79h-37.992Z"></path>
  <path fill="#fff" d="M273.804 169.733H228.31a7.5 7.5 0 0 1-7.5-7.5v-59.657a7.5 7.5 0 0 1 7.5-7.5h45.493a30.823 30.823 0 0 1 30.789 30.79v13.078a30.823 30.823 0 0 1-30.79 30.79Zm-37.993-15h37.993a15.807 15.807 0 0 0 15.789-15.789v-13.079a15.807 15.807 0 0 0-15.79-15.789h-37.992Z"></path>
  <path fill="#fff" d="M243.398 110.076a7.5 7.5 0 0 1-7.5-7.5V85.03a7.5 7.5 0 0 1 15 0v17.546a7.5 7.5 0 0 1-7.5 7.5zm30.245 0a7.5 7.5 0 0 1-7.5-7.5V85.03a7.5 7.5 0 0 1 15 0v17.546a7.5 7.5 0 0 1-7.5 7.5zM243.398 247.28a7.5 7.5 0 0 1-7.5-7.5v-17.546a7.5 7.5 0 0 1 15 0v17.546a7.5 7.5 0 0 1-7.5 7.5zm30.245 0a7.5 7.5 0 0 1-7.5-7.5v-17.546a7.5 7.5 0 0 1 15 0v17.546a7.5 7.5 0 0 1-7.5 7.5z"></path>
  <path fill="#fff" d="M238.838 110.076h-23.93a7.5 7.5 0 0 1 0-15h23.93a7.5 7.5 0 0 1 0 15zm0 119.657h-23.93a7.5 7.5 0 0 1 0-15h23.93a7.5 7.5 0 0 1 0 15z"></path>
  <path fill="#e1e1e3" d="M166 488.708a7.5 7.5 0 0 1-7.5-7.5V216.5a7.5 7.5 0 0 1 15 0v264.708a7.5 7.5 0 0 1-7.5 7.5zm180 0a7.5 7.5 0 0 1-7.5-7.5V216.5a7.5 7.5 0 0 1 15 0v264.708a7.5 7.5 0 0 1-7.5 7.5z"></path>
  <rect width="45" height="114" x="143.5" y="251" fill="#e4222e" rx="10"></rect>
  <path fill="#c0232c" d="M178.5 251h-15a10 10 0 0 1 10 10v94a10 10 0 0 1-10 10h15a10 10 0 0 0 10-10v-94a10 10 0 0 0-10-10Z"></path>
  <path fill="#e1e1e3" d="M76 512a7.5 7.5 0 0 1-7.5-7.5v-243a7.5 7.5 0 0 1 15 0v243A7.5 7.5 0 0 1 76 512zm360 0a7.5 7.5 0 0 1-7.5-7.5v-243a7.5 7.5 0 0 1 15 0v243a7.5 7.5 0 0 1-7.5 7.5z"></path>
  <rect width="45" height="159" x="53.5" y="296" fill="#19ac66" rx="10"></rect>
  <path fill="#138b4c" d="M88.5 296h-15a10 10 0 0 1 10 10v139a10 10 0 0 1-10 10h15a10 10 0 0 0 10-10V306a10 10 0 0 0-10-10Z"></path>
  <rect width="45" height="174" x="413.5" y="296" fill="#e4222e" rx="10"></rect>
  <path fill="#c0232c" d="M448.5 296h-15a10 10 0 0 1 10 10v154a10 10 0 0 1-10 10h15a10 10 0 0 0 10-10V306a10 10 0 0 0-10-10Z"></path>
  <rect width="45" height="144" x="323.5" y="251" fill="#19ac66" rx="10"></rect>
  <path fill="#138b4c" d="M358.5 251h-15a10 10 0 0 1 10 10v124a10 10 0 0 1-10 10h15a10 10 0 0 0 10-10V261a10 10 0 0 0-10-10Z"></path>
  <path fill="#e1e1e3" d="M256 482a7.5 7.5 0 0 1-7.5-7.5v-213a7.5 7.5 0 0 1 15 0v213a7.5 7.5 0 0 1-7.5 7.5Z"></path>
  <rect width="45" height="144" x="233.5" y="281" fill="#19ac66" rx="10"></rect>
  <path fill="#138b4c" d="M268.5 281h-15a10 10 0 0 1 10 10v124a10 10 0 0 1-10 10h15a10 10 0 0 0 10-10V291a10 10 0 0 0-10-10Z"></path>
</svg>
