<svg xmlns="http://www.w3.org/2000/svg" id="up-trend" enable-background="new 0 0 64 64" viewBox="0 0 64 64">
  <polygon fill="#6ba6d6" points="18 21 15 21 15 27 11 27 11 21 8 21 13 16"></polygon>
  <path fill="#3b7cb2" d="M18,21h-3v6h-2v-5.714c0-0.573,0.416-0.983,0.933-1.229C13.963,20.043,13.986,20.024,14,20c0.448-0.791-1.87-3.12-1.87-3.12L13,16L18,21z"></path>
  <path fill="#d0e8f7" d="M12.424,18.543C11.78,18.543,11.356,20,12,20C12.643,20,13.068,18.543,12.424,18.543z"></path>
  <polygon fill="#6ba6d6" points="54 6 51 6 51 12 47 12 47 6 44 6 49 1"></polygon>
  <path fill="#3b7cb2" d="M54,6h-3v6h-2V6.286c0-0.573,0.416-0.983,0.933-1.229C49.963,5.043,49.986,5.024,50,5c0.448-0.791-1.87-3.12-1.87-3.12L49,1L54,6z"></path>
  <path fill="#d0e8f7" d="M48.424,3.543C47.78,3.543,47.356,5,48,5C48.643,5,49.068,3.543,48.424,3.543z"></path>
  <polygon fill="#6ba6d6" points="46 57 43 57 43 63 39 63 39 57 36 57 41 52"></polygon>
  <path fill="#3b7cb2" d="M46,57h-3v6h-2v-5.714c0-0.573,0.416-0.983,0.933-1.229C41.963,56.043,41.986,56.024,42,56c0.448-0.791-1.87-3.12-1.87-3.12L41,52L46,57z"></path>
  <path fill="#d0e8f7" d="M40.424,54.543C39.78,54.543,39.356,56,40,56C40.643,56,41.068,54.543,40.424,54.543z"></path>
  <path fill="#6ba6d6" d="M62.39,4.81c0.5,0.21,0.74,0.78,0.54,1.28L51.87,33.2c-0.28,0.68-1.19,0.83-1.66,0.26l-8.67-10.23c-0.48-0.57-1.4-0.41-1.67,0.28l-7.63,19.46c-0.26,0.68-1.16,0.85-1.64,0.3l-6.81-7.55c-0.49-0.54-1.36-0.39-1.64,0.28l-6.54,15.51c-0.25,0.58-0.97,0.78-1.48,0.42l-4.97-3.55c-0.5-0.36-1.21-0.17-1.46,0.4l-3.03,6.64c-0.23,0.5-0.81,0.72-1.3,0.49L1.58,55.1c-0.5-0.23-0.72-0.81-0.49-1.3l5-11c0.26-0.56,0.97-0.75,1.47-0.39l4.85,3.46c0.52,0.37,1.24,0.17,1.48-0.41l7.04-16.69c0.28-0.66,1.15-0.81,1.64-0.28l6.68,7.42c0.49,0.55,1.38,0.39,1.65-0.3l7.71-19.67c0.27-0.69,1.19-0.84,1.67-0.27l8.73,10.3c0.48,0.57,1.39,0.42,1.67-0.26l8.6-21.1c0.21-0.5,0.78-0.74,1.29-0.54L62.39,4.81z"></path>
  <path fill="#3b7cb2" d="M62.93,6.09L51.87,33.2c-0.28,0.68-1.19,0.83-1.66,0.26l-8.67-10.23c-0.48-0.57-1.4-0.41-1.67,0.28l-7.63,19.46c-0.26,0.68-1.16,0.85-1.64,0.3l-6.81-7.55c-0.49-0.54-1.36-0.39-1.64,0.28l-6.54,15.51c-0.25,0.58-0.97,0.78-1.48,0.42l-4.97-3.55c-0.5-0.36-1.21-0.17-1.46,0.4l-3.03,6.64c-0.23,0.5-0.81,0.72-1.3,0.49L1.58,55.1c-0.5-0.23-0.72-0.81-0.49-1.3l0.55-1.22l0.73,0.33c0.49,0.23,1.07,0.01,1.3-0.49l3.03-6.64c0.25-0.57,0.96-0.76,1.46-0.4l4.97,3.55c0.51,0.36,1.23,0.16,1.48-0.42L21.15,33c0.28-0.67,1.15-0.82,1.64-0.28l6.81,7.55c0.48,0.55,1.38,0.38,1.64-0.3l7.63-19.46c0.27-0.69,1.19-0.85,1.67-0.28l8.67,10.23c0.47,0.57,1.38,0.42,1.66-0.26L61.39,4.4l1,0.41C62.89,5.02,63.13,5.59,62.93,6.09z"></path>
  <path fill="#d0e8f7" d="M40.272 17.956c-.643 0-.101 1.075.544 1.075C41.459 19.031 40.916 17.956 40.272 17.956zM22.5 31.033c-.643 0-.001 1 .643 1C23.787 32.033 23.145 31.033 22.5 31.033zM7.663 44.141c-.643 0-.003.937.642.937C8.948 45.078 8.308 44.141 7.663 44.141z"></path>
  <path fill="#002c6d" d="M39 64h4c.552 0 1-.448 1-1v-5h2c.404 0 .769-.244.924-.617.155-.374.069-.804-.217-1.09l-5-5c-.391-.391-1.023-.391-1.414 0l-5 5c-.286.286-.372.716-.217 1.09C35.231 57.756 35.596 58 36 58h2v5C38 63.552 38.448 64 39 64zM41 53.414L43.586 56H43c-.552 0-1 .448-1 1v5h-2v-5c0-.552-.448-1-1-1h-.586L41 53.414zM8 22h2v5c0 .552.448 1 1 1h4c.552 0 1-.448 1-1v-5h2c.404 0 .769-.244.924-.617.155-.374.069-.804-.217-1.09l-5-5c-.391-.391-1.023-.391-1.414 0l-5 5c-.286.286-.372.716-.217 1.09C7.231 21.756 7.596 22 8 22zM13 17.414L15.586 20H15c-.552 0-1 .448-1 1v5h-2v-5c0-.552-.448-1-1-1h-.586L13 17.414zM44 7h2v5c0 .552.448 1 1 1h4c.552 0 1-.448 1-1V7h2c.404 0 .769-.244.924-.617.155-.374.069-.804-.217-1.09l-5-5c-.391-.391-1.023-.391-1.414 0l-5 5c-.286.286-.372.716-.217 1.09C43.231 6.756 43.596 7 44 7zM49 2.414L51.586 5H51c-.552 0-1 .448-1 1v5h-2V6c0-.552-.448-1-1-1h-.586L49 2.414zM1.164 56.01l1.79.812C3.219 56.943 3.497 57 3.771 57c.754 0 1.476-.432 1.808-1.161l3.003-6.642 4.967 3.542c.492.352 1.11.458 1.693.294.583-.165 1.052-.58 1.287-1.137l1.057-2.507c.215-.509-.024-1.096-.533-1.31-.509-.216-1.095.024-1.31.533l-1.033 2.5-4.967-3.542c-.485-.346-1.092-.457-1.667-.301-.574.154-1.044.553-1.29 1.093l-3.006 6.64-1.782-.788 4.981-10.987 4.854 3.463c.494.352 1.11.46 1.694.293.582-.165 1.051-.58 1.286-1.137l7.01-16.683 6.688 7.421c.463.515 1.146.748 1.829.624.681-.124 1.239-.583 1.492-1.228l2.984-7.615c.202-.514-.052-1.094-.566-1.296-.515-.202-1.094.052-1.296.566l-2.958 7.609-6.688-7.421c-.458-.506-1.131-.737-1.805-.627-.672.114-1.232.557-1.497 1.185l-7.013 16.681-4.854-3.462c-.484-.346-1.094-.455-1.667-.301-.575.154-1.045.553-1.291 1.093L.178 53.385c-.219.482-.238 1.021-.052 1.517C.312 55.397.681 55.791 1.164 56.01z"></path>
  <path fill="#002c6d" d="M62.764,3.887l-1.821-0.741c-1.013-0.409-2.171,0.076-2.584,1.087l-8.582,21.094l-8.736-10.309c-0.456-0.539-1.143-0.79-1.84-0.674c-0.695,0.116-1.264,0.577-1.52,1.232l-3.158,8.058c-0.202,0.514,0.052,1.094,0.566,1.296c0.514,0.202,1.094-0.052,1.296-0.566l3.131-8.053l8.736,10.309c0.452,0.534,1.135,0.786,1.825,0.676c0.69-0.109,1.26-0.562,1.524-1.208l8.588-21.09l1.812,0.716L50.969,32.816L42.3,22.585c-0.456-0.538-1.145-0.79-1.839-0.674c-0.696,0.115-1.265,0.576-1.522,1.232l-7.601,19.46l-6.809-7.554c-0.457-0.507-1.129-0.739-1.804-0.628c-0.673,0.114-1.232,0.556-1.498,1.185l-4.149,9.84c-0.215,0.509,0.024,1.096,0.533,1.31c0.127,0.054,0.259,0.079,0.388,0.079c0.39,0,0.761-0.23,0.922-0.612l4.123-9.835l6.809,7.554c0.463,0.515,1.147,0.748,1.829,0.624c0.682-0.124,1.239-0.583,1.492-1.228l7.601-19.46l8.67,10.232c0.453,0.533,1.132,0.786,1.826,0.676c0.69-0.11,1.26-0.562,1.524-1.208l11.06-27.106c0.2-0.49,0.196-1.029-0.01-1.518C63.638,4.465,63.254,4.087,62.764,3.887z"></path>
  <path fill="#002c6d" d="M15.447,55.5c0.179,0.341,0.527,0.537,0.887,0.537c0.156,0,0.314-0.037,0.462-0.114l42.308-22.131l-0.552,2.875c-0.104,0.542,0.251,1.066,0.793,1.17c0.063,0.012,0.127,0.018,0.189,0.018c0.47,0,0.889-0.333,0.981-0.812l0.942-4.91c0.09-0.468-0.163-0.935-0.604-1.114l-4.722-1.925c-0.512-0.211-1.096,0.037-1.303,0.548c-0.208,0.511,0.037,1.095,0.548,1.303l2.726,1.112L15.87,54.151C15.38,54.407,15.191,55.011,15.447,55.5z"></path>
</svg>
